<svg width="1280" height="760" viewBox="0 0 1280 760" fill="none" xmlns="http://www.w3.org/2000/svg">
  <rect width="1280" height="760" fill="#0b1020"/>
  <rect x="44" y="44" width="1192" height="672" rx="34" fill="#101827" stroke="#facc15" stroke-opacity="0.38" stroke-width="2"/>
  <circle cx="965" cy="382" r="214" fill="#facc15" fill-opacity="0.08" stroke="#facc15" stroke-opacity="0.22" stroke-width="2"/>
  <path d="M808 470C880 330 1024 296 1110 228" stroke="#facc15" stroke-width="7" stroke-linecap="round"/>
  <path d="M804 511C930 482 1014 422 1128 316" stroke="#22c55e" stroke-width="7" stroke-linecap="round"/>
  <rect x="112" y="150" width="516" height="390" rx="24" fill="#020617" stroke="#334155"/>
  <g fill="#facc15">
    <rect x="158" y="438" width="46" height="54" rx="8"/>
    <rect x="232" y="368" width="46" height="124" rx="8"/>
    <rect x="306" y="318" width="46" height="174" rx="8"/>
    <rect x="380" y="250" width="46" height="242" rx="8"/>
    <rect x="454" y="292" width="46" height="200" rx="8"/>
  </g>
  <text x="96" y="104" fill="#fde68a" font-family="monospace" font-size="28" font-weight="700">CRICSCOPE</text>
  <text x="150" y="230" fill="#f8fafc" font-family="monospace" font-size="58" font-weight="800">Cricket</text>
  <text x="150" y="292" fill="#f8fafc" font-family="monospace" font-size="58" font-weight="800">analytics</text>
  <text x="150" y="604" fill="#fde68a" font-family="monospace" font-size="24">insights / visuals / predictions</text>
</svg>
